<mxfile host="app.diagrams.net" modified="2024-04-24T03:22:44.612Z" agent="Mozilla/5.0 (Windows NT 10.0; Win64; x64; rv:125.0) Gecko/20100101 Firefox/125.0" version="24.2.7" etag="4Y3Knx6e-BzRh4De7gx-" type="github">
  <diagram name="Page-1" id="WVeQBXW8Tkf9LoR1Fb6v">
    <mxGraphModel>
      <root>
        <mxCell id="0" />
        <mxCell id="1" parent="0" />
      </root>
    </mxGraphModel>
  </diagram>
</mxfile>
